<svg xmlns="http://www.w3.org/2000/svg" viewBox="0 0 32 32" width="32" height="32">
  <!-- Background circle -->
  <circle cx="16" cy="16" r="15" fill="#3b82f6" stroke="#1d4ed8" stroke-width="2"/>
  
  <!-- Airplane icon -->
  <path d="M8 16l4-2 6-6 2 2-4 4 4 1 2-2 1 1-3 3-1-1 2-2-4-1 4-4-2-2-6 6-4 2z" fill="white"/>
  
  <!-- Hotel/building icon -->
  <rect x="18" y="10" width="8" height="12" fill="white" opacity="0.9"/>
  <rect x="19" y="12" width="1.5" height="1.5" fill="#3b82f6"/>
  <rect x="21" y="12" width="1.5" height="1.5" fill="#3b82f6"/>
  <rect x="23.5" y="12" width="1.5" height="1.5" fill="#3b82f6"/>
  <rect x="19" y="14.5" width="1.5" height="1.5" fill="#3b82f6"/>
  <rect x="21" y="14.5" width="1.5" height="1.5" fill="#3b82f6"/>
  <rect x="23.5" y="14.5" width="1.5" height="1.5" fill="#3b82f6"/>
  <rect x="19" y="17" width="1.5" height="1.5" fill="#3b82f6"/>
  <rect x="21" y="17" width="1.5" height="1.5" fill="#3b82f6"/>
  <rect x="23.5" y="17" width="1.5" height="1.5" fill="#3b82f6"/>
  
  <!-- Transfer arrows -->
  <path d="M14 18l2 1-2 1" stroke="white" stroke-width="1.5" fill="none" stroke-linecap="round"/>
</svg>
